<svg width="30" height="30" viewBox="0 0 30 30" fill="none" xmlns="http://www.w3.org/2000/svg">
<rect width="30" height="30" rx="15" fill="white"/>
<path d="M17.6875 15.75H17.1938L17.0188 15.5812C17.4094 15.1275 17.6949 14.593 17.8548 14.016C18.0147 13.439 18.0451 12.8338 17.9438 12.2437C17.65 10.5062 16.2 9.11873 14.45 8.90623C13.8348 8.8284 13.2099 8.89234 12.6232 9.09316C12.0365 9.29399 11.5034 9.62637 11.0649 10.0649C10.6264 10.5034 10.294 11.0364 10.0932 11.6231C9.8924 12.2099 9.82846 12.8347 9.9063 13.45C10.1188 15.2 11.5063 16.65 13.2438 16.9437C13.8339 17.045 14.4391 17.0146 15.0161 16.8547C15.593 16.6948 16.1275 16.4093 16.5813 16.0187L16.75 16.1937V16.6875L19.4063 19.3437C19.6625 19.6 20.0813 19.6 20.3375 19.3437C20.5938 19.0875 20.5938 18.6687 20.3375 18.4125L17.6875 15.75ZM13.9375 15.75C12.3813 15.75 11.125 14.4937 11.125 12.9375C11.125 11.3812 12.3813 10.125 13.9375 10.125C15.4938 10.125 16.75 11.3812 16.75 12.9375C16.75 14.4937 15.4938 15.75 13.9375 15.75Z" fill="black"/>
</svg>
