<svg width="130" height="130" viewBox="0 0 130 130" fill="none" xmlns="http://www.w3.org/2000/svg">
<g filter="url(#filter0_d_22_106)">
<rect x="90" y="72" width="50" height="50" rx="25" transform="rotate(-180 90 72)" fill="white"/>
<path d="M62.29 52.29C62.3825 52.3827 62.4924 52.4563 62.6134 52.5064C62.7344 52.5566 62.864 52.5825 62.995 52.5825C63.126 52.5825 63.2557 52.5566 63.3766 52.5064C63.4976 52.4563 63.6075 52.3827 63.7 52.29L68.29 47.7C68.3827 47.6075 68.4563 47.4976 68.5064 47.3766C68.5566 47.2557 68.5825 47.126 68.5825 46.995C68.5825 46.864 68.5566 46.7344 68.5064 46.6134C68.4563 46.4924 68.3827 46.3825 68.29 46.29L63.7 41.7C63.6074 41.6074 63.4975 41.534 63.3766 41.4839C63.2556 41.4338 63.1259 41.408 62.995 41.408C62.8641 41.408 62.7344 41.4338 62.6135 41.4839C62.4925 41.534 62.3826 41.6074 62.29 41.7C62.1974 41.7926 62.124 41.9025 62.0739 42.0235C62.0238 42.1444 61.998 42.2741 61.998 42.405C61.998 42.5359 62.0238 42.6656 62.0739 42.7866C62.124 42.9075 62.1974 43.0174 62.29 43.11L66.17 47L62.29 50.88C61.9 51.27 61.91 51.91 62.29 52.29Z" fill="black"/>
</g>
<defs>
<filter id="filter0_d_22_106" x="0" y="0" width="130" height="130" filterUnits="userSpaceOnUse" color-interpolation-filters="sRGB">
<feFlood flood-opacity="0" result="BackgroundImageFix"/>
<feColorMatrix in="SourceAlpha" type="matrix" values="0 0 0 0 0 0 0 0 0 0 0 0 0 0 0 0 0 0 127 0" result="hardAlpha"/>
<feOffset dy="18"/>
<feGaussianBlur stdDeviation="20"/>
<feComposite in2="hardAlpha" operator="out"/>
<feColorMatrix type="matrix" values="0 0 0 0 0.704167 0 0 0 0 0.695365 0 0 0 0 0.695365 0 0 0 0.25 0"/>
<feBlend mode="normal" in2="BackgroundImageFix" result="effect1_dropShadow_22_106"/>
<feBlend mode="normal" in="SourceGraphic" in2="effect1_dropShadow_22_106" result="shape"/>
</filter>
</defs>
</svg>
