<svg width="15" height="15" viewBox="0 0 15 15" fill="none" xmlns="http://www.w3.org/2000/svg">
<path d="M7.5 3.43749L7.1625 3.76249C7.20623 3.80786 7.25865 3.84394 7.31664 3.86859C7.37463 3.89324 7.43699 3.90594 7.5 3.90594C7.56301 3.90594 7.62537 3.89324 7.68336 3.86859C7.74135 3.84394 7.79377 3.80786 7.8375 3.76249L7.5 3.43749ZM5.89125 11.4512C4.94375 10.7044 3.90813 9.97499 3.08625 9.04999C2.28125 8.14249 1.71875 7.08374 1.71875 5.71062H0.78125C0.78125 7.37687 1.475 8.64812 2.38562 9.67249C3.27937 10.6787 4.41937 11.485 5.31063 12.1875L5.89188 11.4512H5.89125ZM1.71875 5.71062C1.71875 4.36687 2.47812 3.23937 3.515 2.76499C4.5225 2.30437 5.87625 2.42624 7.1625 3.76249L7.8375 3.11312C6.3125 1.52749 4.54 1.26562 3.125 1.91249C1.74125 2.54562 0.78125 4.01562 0.78125 5.71062H1.71875ZM5.31063 12.1875C5.63125 12.44 5.975 12.7087 6.32312 12.9125C6.67125 13.1156 7.06875 13.2812 7.5 13.2812V12.3437C7.30625 12.3437 7.07875 12.2687 6.79625 12.1031C6.51312 11.9381 6.22 11.7106 5.89125 11.4512L5.31063 12.1875ZM9.68937 12.1875C10.5806 11.4844 11.7206 10.6794 12.6144 9.67249C13.525 8.64749 14.2188 7.37687 14.2188 5.71062H13.2812C13.2812 7.08374 12.7188 8.14249 11.9137 9.04999C11.0919 9.97499 10.0563 10.7044 9.10875 11.4512L9.68937 12.1875ZM14.2188 5.71062C14.2188 4.01562 13.2594 2.54562 11.875 1.91249C10.46 1.26562 8.68875 1.52749 7.1625 3.11249L7.8375 3.76249C9.12375 2.42687 10.4775 2.30437 11.485 2.76499C12.5219 3.23937 13.2812 4.36624 13.2812 5.71062H14.2188ZM9.10875 11.4512C8.78 11.7106 8.48688 11.9381 8.20375 12.1031C7.92125 12.2681 7.69375 12.3437 7.5 12.3437V13.2812C7.93125 13.2812 8.32875 13.1156 8.67688 12.9125C9.02563 12.7087 9.36875 12.44 9.68937 12.1875L9.10875 11.4512Z" fill="black"/>
</svg>
